# AST/ASF file generated using VICON BodyLanguage
# -----------------------------------------------
:version 1.10
:name VICON
:units
  mass 1.0
  length 0.45
  angle deg
:documentation
   .ast/.asf automatically generated from VICON data using
   VICON BodyBuilder and BodyLanguage model FoxedUp or BRILLIANT.MOD
:root
   order TX TY TZ RX RY RZ
   axis XYZ
   position 0 0 0  
   orientation 0 0 0 
:bonedata
  begin
     id 1 
     name lhipjoint
     direction 0.624716 -0.669793 0.401383 
     length 2.38238 
     axis 0 0 0  XYZ
  end
  begin
     id 2 
     name lfemur
     direction 0.34202 -0.939693 0  
     length 6.4574  
     axis 0 0 20  XYZ
    dof rx ry rz
    limits (-160.0 20.0)
           (-70.0 70.0)
           (-60.0 70.0)
  end
  begin
     id 3 
     name ltibia
     direction 0.34202 -0.939693 0   
     length 7.68739   
     axis 0 0 20   XYZ
    dof rx
    limits (-10.0 170.0)
  end
  begin
     id 4 
     name lfoot
     direction 0.0681309 -0.187188 0.979959   
     length 2.46615   
     axis -90 7.62852e-016 20   XYZ
    dof rx rz
    limits (-45.0 90.0)
           (-70.0 20.0)
  end
  begin
     id 5 
     name ltoes
     direction 1.53566e-011 -4.21819e-011 1   
     length 1.2376   
     axis -90 7.62852e-016 20   XYZ
    dof rx
    limits (-90.0 20.0)
  end
  begin
     id 6 
     name rhipjoint
     direction -0.644473 -0.655875 0.393043   
     length 2.43293  
     axis 0 0 0  XYZ 
  end
  begin
     id 7 
     name rfemur
     direction -0.34202 -0.939693 0   
     length 6.7025   
     axis 0 0 -20   XYZ
    dof rx ry rz
    limits (-160.0 20.0)
           (-70.0 70.0)
           (-70.0 60.0)
  end
  begin
     id 8 
     name rtibia
     direction -0.34202 -0.939693 0   
     length 7.80547   
     axis 0 0 -20   XYZ
    dof rx
    limits (-10.0 170.0)
 end
 begin
     id 9 
     name rfoot
     direction -0.0756734 -0.207911 0.975216   
     length 2.40315  
     axis -90 -7.62852e-016 -20   XYZ
    dof rx rz
    limits (-45.0 90.0)
           (-20.0 70.0)
  end
  begin
     id 10 
     name rtoes
     direction -1.5353e-011 -4.21879e-011 1   
     length 1.20477   
     axis -90 -7.62852e-016 -20   XYZ
    dof rx
    limits (-90.0 20.0)
  end
  begin
     id 11 
     name lowerback
     direction 0.0160353 0.987463 -0.157037   
     length 2.18572   
     axis 0 0 0   XYZ
    dof rx ry rz
    limits (-20.0 45.0)
           (-30.0 30.0)
           (-30.0 30.0)
  end
  begin
     id 12 
     name upperback
     direction -0.00499661 0.999756 0.0215076   
     length 2.18016   
     axis 0 0 0   XYZ
    dof rx ry rz
    limits (-20.0 45.0)
           (-30.0 30.0)
           (-30.0 30.0)
  end
  begin
     id 13 
     name thorax
     direction -0.00921346 0.995333 0.0960619   
     length 2.24923   
     axis 0 0 0   XYZ
    dof rx ry rz
    limits (-20.0 45.0)
           (-30.0 30.0)
           (-30.0 30.0)
  end
  begin
     id 14 
     name lowerneck
     direction 0.0274184 0.991181 0.12965   
     length 1.70911   
     axis 0 0 0   XYZ
    dof rx ry rz
    limits (-20.0 45.0)
           (-30.0 30.0)
           (-30.0 30.0)
  end
  begin
     id 15 
     name upperneck
     direction 0.0015627 0.999959 -0.00893559   
     length 1.69312   
     axis 0 0 0   XYZ
    dof rx ry rz
    limits (-20.0 45.0)
           (-30.0 30.0)
           (-30.0 30.0)
  end
  begin
     id 16
     name head
     direction -0.00230242 0.999856 -0.0168327  
     length 1.80241  
     axis 0 0 0   XYZ
    dof rx ry rz
    limits (-20.0 45.0)
           (-30.0 30.0)
           (-30.0 30.0)
  end
  begin
     id 17 
     name lclavicle
     direction 0.955523 0.290741 -0.0494489  
     length 3.84275  
     axis 0 0 0   XYZ
    dof ry rz
    limits (-20.0 10.0)
           (0.0 20.0)
  end
  begin
     id 18 
     name lhumerus
     direction 1 -4.48967e-011 -3.18382e-028   
     length 5.17714   
     axis 180 -30 -90   XYZ
    dof rx ry rz
    limits (-60.0 90.0)
           (-90.0 90.0)
           (-90.0 90.0)
  end
  begin
     id 19
     name lradius
     direction 1 -4.48968e-011 -2.22911e-027   
     length 3.43679   
     axis 180 -30 -90   XYZ
    dof rx
    limits (-10.0 170.0)
  end
  begin
     id 20
     name lwrist
     direction 1 -4.48951e-011 -6.32245e-027   
     length 1.7184   
     axis 3.57107e-015 90 90   XYZ
    dof ry
    limits (-180.0 0.0)
 end
  begin
     id 21 
     name lhand
     direction 1 -4.48924e-011 -1.26431e-026   
     length 0.573117   
     axis 8.06912e-015 90 90   XYZ
    dof rx rz
    limits (-90.0 90.0)
           (-45.0 45.0)
  end
  begin
     id 22 
     name lfingers
     direction 1 -4.49001e-011 -2.52965e-026   
     length 0.462062   
     axis 1.61381e-014 90 90   XYZ
    dof rx
    limits (0.0 90.0)
  end
  begin
     id 23
     name lthumb
     direction 0.707107 -6.35008e-011 0.707107   
     length 0.663431   
     axis -90 45 -1.62303e-014   XYZ
    dof rx rz
    limits (-45.0 45.0)
           (-45.0 45.0)
  end
  begin
     id 24 
     name rclavicle
     direction -0.963917 0.256881 -0.0698287   
     length 3.73057  
     axis 0 0 0   XYZ 
    dof ry rz
    limits (-10.0 20.0)
           (-20.0 0.0)
  end
  begin
     id 25 
     name rhumerus
     direction -1 -4.48962e-011 -2.73982e-027  
     length 5.23908   
     axis 180 30 90   XYZ
    dof rx ry rz
    limits (-90.0 60.0)
           (-90.0 90.0)
           (-90.0 90.0)
  end
  begin
     id 26 
     name rradius
     direction -1 -4.48968e-011 -4.33218e-027   
     length 3.46485   
     axis 180 30 90   XYZ
    dof rx
    limits (-10.0 170.0)
  end
  begin
     id 27 
     name rwrist
     direction -1 -4.48989e-011 -6.32372e-027   
     length 1.73243   
     axis 3.57107e-015 -90 -90   XYZ
    dof ry
    limits (-180.0 0.0)
  end
  begin
     id 28
     name rhand
     direction -1 -4.48948e-011 -1.26448e-026   
     length 0.608752   
     axis 8.06912e-015 -90 -90   XYZ
    dof rx rz
    limits (-90.0 90.0)
           (-45.0 45.0)
  end
  begin
     id 29
     name rfingers
     direction -1 -4.48962e-011 -2.52913e-026   
     length 0.490792   
     axis 1.61381e-014 -90 -90   XYZ
    dof rx
    limits (0.0 90.0)
  end
  begin
     id 30
     name rthumb
     direction -0.707107 -6.34878e-011 0.707107   
     length 0.704682   
     axis -90 -45 1.62303e-014   XYZ
    dof rx rz
    limits (-45.0 45.0)
           (-45.0 45.0)
  end
:hierarchy
  begin
    root lhipjoint rhipjoint lowerback
    lhipjoint lfemur
    lfemur ltibia
    ltibia lfoot
    lfoot ltoes
    rhipjoint rfemur
    rfemur rtibia
    rtibia rfoot
    rfoot rtoes
    lowerback upperback
    upperback thorax
    thorax lowerneck lclavicle rclavicle
    lowerneck upperneck
    upperneck head
    lclavicle lhumerus
    lhumerus lradius
    lradius lwrist
    lwrist lhand lthumb
    lhand lfingers
    rclavicle rhumerus
    rhumerus rradius
    rradius rwrist
    rwrist rhand rthumb
    rhand rfingers
  end

#!OML:ASF G:\JayActor3\Patient Classification 1\Patient 1\Session 6\male.ASF
:FULLY-SPECIFIED
:DEGREES
330
root 36.6139 14.6025 9.86389 196.123 -50.606 -178.781
lowerback 38.4985 1.02182 4.07239
upperback 18.2435 -1.5499 0.635937
thorax 1.27213 -2.0415 -0.992242
lowerneck 4.50087 -0.00307894 2.20121
upperneck -25.1493 0.0409633 3.17539
head -8.55028 -1.05076 0.774881
rclavicle 5.77966e-014 -1.33558e-014
rhumerus -9.1443 10.0416 -77.5677
rradius 63.7348
rwrist -12.4828
rhand -23.8961 -6.89653
rfingers 7.12502
rthumb 2.57768 -36.8607
lclavicle 5.77966e-014 -1.33558e-014
lhumerus -4.28983 -6.55365 63.4818
lradius 69.0653
lwrist 31.926
lhand -16.7567 10.1053
lfingers 7.12502
lthumb 9.47013 39.8725
rfemur -62.32 -3.86349 23.5624
rtibia 67.4925
rfoot -23.4813 -15.3491
rtoes -3.0789
lfemur -63.9654 13.6271 -27.4475
ltibia 61.4337
lfoot -21.5328 4.71583
ltoes -18.7529
331
root 36.582 14.5917 9.83504 195.867 -50.4812 -178.657
lowerback 38.6139 1.13606 4.04226
upperback 18.3547 -1.46748 0.586594
thorax 1.36218 -2.01324 -1.05585
lowerneck 4.48838 -0.0167516 2.19917
upperneck -25.0217 0.024796 3.15509
head -8.50388 -1.04659 0.766927
rclavicle -3.4837e-014 3.74833e-014
rhumerus -9.13607 9.99933 -77.5088
rradius 63.9666
rwrist -12.5933
rhand -23.9883 -6.85808
rfingers 7.12502
rthumb 2.48867 -36.8233
lclavicle -3.4837e-014 3.74833e-014
lhumerus -4.19149 -6.58928 63.44
lradius 68.915
lwrist 31.9226
lhand -16.6966 10.1443
lfingers 7.12502
lthumb 9.52806 39.9089
rfemur -62.1226 -3.95437 23.7188
rtibia 67.7308
rfoot -23.6491 -15.2301
rtoes -3.1991
lfemur -63.9513 13.5153 -27.2398
ltibia 61.0526
lfoot -21.2006 4.67779
ltoes -18.3816
332
root 36.5491 14.5789 9.80769 195.587 -50.3255 -178.523
lowerback 38.7261 1.26184 4.0058
upperback 18.4636 -1.37394 0.530399
thorax 1.45099 -1.97984 -1.12694
lowerneck 4.49826 -0.024369 2.20341
upperneck -24.9722 0.012826 3.1208
head -8.48858 -1.04449 0.754491
rclavicle -7.97623e-015 1.38342e-014
rhumerus -9.1577 9.95006 -77.4649
rradius 64.1843
rwrist -12.7054
rhand -24.1419 -6.84955
rfingers 7.12502
rthumb 2.34031 -36.8165
lclavicle -7.97623e-015 1.38342e-014
lhumerus -4.06799 -6.62953 63.3955
lradius 68.7617
lwrist 31.9235
lhand -16.6497 10.1885
lfingers 7.12502
lthumb 9.57338 39.951
rfemur -61.9227 -4.04914 23.881
rtibia 67.9867
rfoot -23.7924 -15.1068
rtoes -3.42668
lfemur -63.8735 13.4362 -26.9774
ltibia 61.0074
lfoot -20.9073 4.64118
ltoes -17.8056
333
root 36.5142 14.5643 9.7817 195.288 -50.132 -178.388
lowerback 38.8379 1.39697 3.95877
upperback 18.5659 -1.27238 0.463259
thorax 1.53267 -1.94273 -1.20639
lowerneck 4.52943 -0.0237281 2.20897
upperneck -24.9943 0.00915528 3.07921
head -8.50184 -1.04228 0.740155
rclavicle -7.23079e-015 -7.70912e-015
rhumerus -9.21071 9.90008 -77.4426
rradius 64.375
rwrist -12.8074
rhand -24.3415 -6.87661
rfingers 7.12502
rthumb 2.14758 -36.8455
lclavicle -7.23079e-015 -7.70912e-015
lhumerus -3.93428 -6.66561 63.3537
lradius 68.6013
lwrist 31.9146
lhand -16.6117 10.2396
lfingers 7.12502
lthumb 9.60996 40.0005
rfemur -61.7136 -4.14488 24.0387
rtibia 68.2588
rfoot -23.9289 -14.9644
rtoes -3.69524
lfemur -63.7005 13.4017 -26.6879
ltibia 61.1844
lfoot -20.6395 4.59861
ltoes -16.904
334
root 36.4779 14.549 9.75695 194.988 -49.9147 -178.267
lowerback 38.9433 1.53431 3.89335
upperback 18.6554 -1.1712 0.389327
thorax 1.60167 -1.90614 -1.28306
lowerneck 4.57541 -0.0148528 2.19928
upperneck -25.0722 0.0142141 3.04188
head -8.537 -1.03848 0.730266
rclavicle 5.41688e-014 -5.53926e-014
rhumerus -9.29601 9.86255 -77.4389
rradius 64.5332
rwrist -12.8953
rhand -24.5644 -6.95158
rfingers 7.12502
rthumb 1.93229 -36.9226
lclavicle 5.41688e-014 -5.53926e-014
lhumerus -3.80136 -6.68325 63.3255
lradius 68.426
lwrist 31.8872
lhand -16.5643 10.3082
lfingers 7.12502
lthumb 9.65573 40.0669
rfemur -61.4996 -4.2503 24.1844
rtibia 68.5376
rfoot -24.0552 -14.8103
rtoes -4.00824
lfemur -63.4318 13.4051 -26.4071
ltibia 61.4544
lfoot -20.4466 4.54563
ltoes -15.7403
